<svg xmlns="http://www.w3.org/2000/svg" xmlns:xlink="http://www.w3.org/1999/xlink" width="2000" zoomAndPan="magnify" viewBox="0 0 1500 1499.999933" height="2000" preserveAspectRatio="xMidYMid meet" version="1.0"><path fill="#000000" d="M 758.292969 2028.621094 C 737.363281 2028.621094 716.449219 2028.109375 695.546875 2027.082031 C 674.644531 2026.054688 653.78125 2024.515625 632.953125 2022.464844 C 612.125 2020.414062 591.363281 2017.851562 570.660156 2014.78125 C 549.960938 2011.710938 529.347656 2008.132812 508.820312 2004.050781 C 488.292969 1999.96875 467.882812 1995.386719 447.582031 1990.300781 C 427.28125 1985.214844 407.117188 1979.636719 387.089844 1973.558594 C 367.0625 1967.484375 347.199219 1960.921875 327.496094 1953.871094 C 307.789062 1946.820312 288.269531 1939.292969 268.9375 1931.285156 C 249.601562 1923.273438 230.472656 1914.796875 211.554688 1905.847656 C 192.636719 1896.902344 173.949219 1887.496094 155.492188 1877.628906 C 137.039062 1867.765625 118.832031 1857.453125 100.882812 1846.691406 C 82.933594 1835.933594 65.257812 1824.742188 47.855469 1813.113281 C 30.457031 1801.488281 13.351562 1789.441406 -3.457031 1776.972656 C -20.265625 1764.507812 -36.761719 1751.636719 -52.9375 1738.359375 C -69.117188 1725.082031 -84.957031 1711.417969 -100.464844 1697.363281 C -115.96875 1683.308594 -131.121094 1668.882812 -145.921875 1654.085938 C -160.71875 1639.289062 -175.144531 1624.136719 -189.199219 1608.628906 C -203.253906 1593.121094 -216.917969 1577.28125 -230.195312 1561.101562 C -243.472656 1544.925781 -256.34375 1528.433594 -268.808594 1511.625 C -281.277344 1494.8125 -293.324219 1477.707031 -304.949219 1460.308594 C -316.574219 1442.90625 -327.769531 1425.230469 -338.527344 1407.28125 C -349.285156 1389.332031 -359.597656 1371.128906 -369.464844 1352.671875 C -379.328125 1334.214844 -388.734375 1315.527344 -397.683594 1296.609375 C -406.632812 1277.691406 -415.109375 1258.5625 -423.117188 1239.230469 C -431.128906 1219.894531 -438.65625 1200.375 -445.707031 1180.671875 C -452.757812 1160.964844 -459.320312 1141.101562 -465.394531 1121.074219 C -471.46875 1101.046875 -477.050781 1080.882812 -482.136719 1060.582031 C -487.21875 1040.28125 -491.804688 1019.871094 -495.886719 999.34375 C -499.96875 978.820312 -503.546875 958.207031 -506.617188 937.503906 C -509.6875 916.804688 -512.25 896.039062 -514.300781 875.210938 C -516.351562 854.386719 -517.890625 833.519531 -518.917969 812.617188 C -519.945312 791.714844 -520.457031 770.800781 -520.457031 749.871094 C -520.457031 728.945312 -519.945312 708.03125 -518.917969 687.128906 C -517.890625 666.226562 -516.351562 645.359375 -514.300781 624.535156 C -512.25 603.707031 -509.6875 582.941406 -506.617188 562.242188 C -503.546875 541.539062 -499.96875 520.925781 -495.886719 500.402344 C -491.804688 479.875 -487.21875 459.460938 -482.136719 439.164062 C -477.050781 418.863281 -471.46875 398.699219 -465.394531 378.671875 C -459.320312 358.644531 -452.757812 338.78125 -445.707031 319.074219 C -438.65625 299.371094 -431.128906 279.851562 -423.117188 260.515625 C -415.109375 241.183594 -406.632812 222.054688 -397.683594 203.136719 C -388.734375 184.21875 -379.328125 165.53125 -369.464844 147.074219 C -359.597656 128.617188 -349.285156 110.414062 -338.527344 92.464844 C -327.769531 74.515625 -316.574219 56.839844 -304.949219 39.4375 C -293.324219 22.035156 -281.277344 4.933594 -268.808594 -11.878906 C -256.34375 -28.6875 -243.472656 -45.179688 -230.195312 -61.355469 C -216.917969 -77.535156 -203.253906 -93.375 -189.199219 -108.882812 C -175.144531 -124.390625 -160.71875 -139.542969 -145.921875 -154.339844 C -131.121094 -169.136719 -115.96875 -183.5625 -100.464844 -197.617188 C -84.957031 -211.671875 -69.117188 -225.335938 -52.9375 -238.613281 C -36.761719 -251.890625 -20.265625 -264.761719 -3.457031 -277.230469 C 13.351562 -289.695312 30.457031 -301.742188 47.855469 -313.367188 C 65.257812 -324.996094 82.933594 -336.1875 100.882812 -346.949219 C 118.832031 -357.707031 137.039062 -368.019531 155.492188 -377.882812 C 173.949219 -387.75 192.636719 -397.15625 211.554688 -406.101562 C 230.472656 -415.050781 249.601562 -423.527344 268.9375 -431.539062 C 288.269531 -439.546875 307.789062 -447.074219 327.496094 -454.125 C 347.199219 -461.175781 367.0625 -467.738281 387.089844 -473.8125 C 407.117188 -479.890625 427.28125 -485.46875 447.582031 -490.554688 C 467.882812 -495.640625 488.292969 -500.222656 508.820312 -504.304688 C 529.347656 -508.390625 549.960938 -511.964844 570.660156 -515.035156 C 591.363281 -518.105469 612.125 -520.667969 632.953125 -522.71875 C 653.78125 -524.769531 674.644531 -526.308594 695.546875 -527.335938 C 716.449219 -528.363281 737.363281 -528.875 758.292969 -528.875 C 779.21875 -528.875 800.136719 -528.363281 821.039062 -527.335938 C 841.941406 -526.308594 862.804688 -524.769531 883.632812 -522.71875 C 904.457031 -520.667969 925.222656 -518.105469 945.921875 -515.035156 C 966.625 -511.964844 987.238281 -508.390625 1007.761719 -504.304688 C 1028.289062 -500.222656 1048.703125 -495.640625 1069.003906 -490.554688 C 1089.304688 -485.46875 1109.46875 -479.890625 1129.492188 -473.8125 C 1149.519531 -467.738281 1169.386719 -461.175781 1189.089844 -454.125 C 1208.792969 -447.074219 1228.3125 -439.546875 1247.648438 -431.539062 C 1266.984375 -423.527344 1286.109375 -415.050781 1305.027344 -406.101562 C 1323.945312 -397.15625 1342.632812 -387.75 1361.089844 -377.882812 C 1379.546875 -368.019531 1397.75 -357.707031 1415.699219 -346.949219 C 1433.652344 -336.1875 1451.328125 -324.996094 1468.726562 -313.367188 C 1486.128906 -301.742188 1503.234375 -289.695312 1520.042969 -277.230469 C 1536.851562 -264.761719 1553.34375 -251.890625 1569.523438 -238.613281 C 1585.699219 -225.335938 1601.542969 -211.671875 1617.046875 -197.617188 C 1632.554688 -183.5625 1647.707031 -169.136719 1662.503906 -154.339844 C 1677.300781 -139.542969 1691.726562 -124.390625 1705.78125 -108.882812 C 1719.835938 -93.375 1733.503906 -77.535156 1746.777344 -61.355469 C 1760.054688 -45.179688 1772.925781 -28.6875 1785.394531 -11.878906 C 1797.859375 4.933594 1809.90625 22.035156 1821.53125 39.4375 C 1833.160156 56.839844 1844.351562 74.515625 1855.113281 92.464844 C 1865.871094 110.414062 1876.183594 128.617188 1886.046875 147.074219 C 1895.914062 165.53125 1905.320312 184.21875 1914.265625 203.136719 C 1923.214844 222.054688 1931.695312 241.183594 1939.703125 260.515625 C 1947.710938 279.851562 1955.242188 299.371094 1962.289062 319.074219 C 1969.339844 338.78125 1975.902344 358.644531 1981.980469 378.671875 C 1988.054688 398.699219 1993.632812 418.863281 1998.71875 439.160156 C 2003.804688 459.460938 2008.386719 479.875 2012.472656 500.402344 C 2016.554688 520.925781 2020.128906 541.539062 2023.203125 562.242188 C 2026.273438 582.941406 2028.832031 603.707031 2030.882812 624.535156 C 2032.933594 645.359375 2034.472656 666.226562 2035.5 687.128906 C 2036.527344 708.03125 2037.042969 728.945312 2037.042969 749.871094 C 2037.015625 770.792969 2036.480469 791.703125 2035.429688 812.597656 C 2034.382812 833.492188 2032.820312 854.347656 2030.75 875.167969 C 2028.679688 895.984375 2026.097656 916.738281 2023.007812 937.429688 C 2019.917969 958.121094 2016.324219 978.726562 2012.226562 999.242188 C 2008.128906 1019.757812 2003.527344 1040.160156 1998.429688 1060.449219 C 1993.328125 1080.742188 1987.734375 1100.894531 1981.648438 1120.910156 C 1975.558594 1140.925781 1968.984375 1160.78125 1961.925781 1180.472656 C 1954.863281 1200.167969 1947.324219 1219.675781 1939.308594 1239 C 1931.289062 1258.324219 1922.804688 1277.4375 1913.847656 1296.347656 C 1904.894531 1315.253906 1895.484375 1333.933594 1885.613281 1352.378906 C 1875.742188 1370.824219 1865.425781 1389.019531 1854.664062 1406.960938 C 1843.902344 1424.898438 1832.707031 1442.566406 1821.078125 1459.957031 C 1809.449219 1477.351562 1797.402344 1494.445312 1784.9375 1511.25 C 1772.472656 1528.050781 1759.601562 1544.535156 1746.324219 1560.707031 C 1733.050781 1576.875 1719.386719 1592.710938 1705.339844 1608.210938 C 1691.289062 1623.710938 1676.863281 1638.859375 1662.070312 1653.652344 C 1647.277344 1668.445312 1632.132812 1682.867188 1616.628906 1696.917969 C 1601.128906 1710.96875 1585.292969 1724.632812 1569.125 1737.90625 C 1552.953125 1751.183594 1536.46875 1764.050781 1519.667969 1776.519531 C 1502.867188 1788.984375 1485.769531 1801.03125 1468.378906 1812.660156 C 1450.984375 1824.289062 1433.320312 1835.484375 1415.378906 1846.246094 C 1397.4375 1857.007812 1379.246094 1867.324219 1360.796875 1877.195312 C 1342.351562 1887.0625 1323.675781 1896.476562 1304.765625 1905.429688 C 1285.859375 1914.386719 1266.742188 1922.871094 1247.417969 1930.886719 C 1228.09375 1938.90625 1208.585938 1946.445312 1188.890625 1953.503906 C 1169.199219 1960.566406 1149.34375 1967.140625 1129.328125 1973.226562 C 1109.3125 1979.316406 1089.160156 1984.910156 1068.871094 1990.007812 C 1048.578125 1995.109375 1028.175781 1999.707031 1007.660156 2003.808594 C 987.144531 2007.90625 966.542969 2011.5 945.851562 2014.589844 C 925.160156 2017.679688 904.402344 2020.257812 883.585938 2022.332031 C 862.765625 2024.402344 841.910156 2025.964844 821.015625 2027.011719 C 800.121094 2028.0625 779.214844 2028.597656 758.292969 2028.621094 Z M 758.292969 -394.273438 C 739.566406 -394.273438 720.855469 -393.8125 702.152344 -392.894531 C 683.449219 -391.976562 664.78125 -390.597656 646.144531 -388.761719 C 627.511719 -386.925781 608.933594 -384.636719 590.410156 -381.886719 C 571.890625 -379.140625 553.445312 -375.941406 535.082031 -372.289062 C 516.714844 -368.632812 498.453125 -364.53125 480.289062 -359.984375 C 462.125 -355.433594 444.082031 -350.441406 426.164062 -345.003906 C 408.246094 -339.570312 390.472656 -333.699219 372.839844 -327.390625 C 355.210938 -321.082031 337.746094 -314.34375 320.445312 -307.179688 C 303.148438 -300.011719 286.035156 -292.425781 269.105469 -284.421875 C 252.179688 -276.414062 235.460938 -268 218.945312 -259.171875 C 202.433594 -250.34375 186.144531 -241.117188 170.085938 -231.492188 C 154.023438 -221.867188 138.207031 -211.851562 122.640625 -201.449219 C 107.070312 -191.046875 91.765625 -180.265625 76.726562 -169.113281 C 61.6875 -157.957031 46.929688 -146.441406 32.453125 -134.5625 C 17.980469 -122.683594 3.804688 -110.457031 -10.066406 -97.882812 C -23.941406 -85.308594 -37.5 -72.398438 -50.738281 -59.160156 C -63.980469 -45.917969 -76.886719 -32.363281 -89.460938 -18.488281 C -102.039062 -4.613281 -114.265625 9.5625 -126.144531 24.035156 C -138.023438 38.507812 -149.539062 53.265625 -160.691406 68.308594 C -171.847656 83.347656 -182.625 98.652344 -193.027344 114.21875 C -203.433594 129.789062 -213.445312 145.605469 -223.074219 161.664062 C -232.699219 177.726562 -241.925781 194.011719 -250.753906 210.527344 C -259.578125 227.039062 -267.996094 243.761719 -276.003906 260.6875 C -284.007812 277.613281 -291.59375 294.726562 -298.757812 312.027344 C -305.925781 329.328125 -312.660156 346.792969 -318.96875 364.421875 C -325.277344 382.050781 -331.148438 399.828125 -336.585938 417.746094 C -342.019531 435.664062 -347.015625 453.703125 -351.5625 471.867188 C -356.113281 490.03125 -360.214844 508.296875 -363.867188 526.660156 C -367.519531 545.027344 -370.722656 563.46875 -373.46875 581.992188 C -376.214844 600.515625 -378.507812 619.09375 -380.34375 637.726562 C -382.179688 656.363281 -383.554688 675.03125 -384.472656 693.734375 C -385.394531 712.433594 -385.851562 731.148438 -385.851562 749.871094 C -385.851562 768.597656 -385.394531 787.3125 -384.472656 806.011719 C -383.554688 824.714844 -382.179688 843.382812 -380.34375 862.019531 C -378.507812 880.652344 -376.214844 899.230469 -373.46875 917.753906 C -370.722656 936.277344 -367.519531 954.71875 -363.867188 973.085938 C -360.214844 991.449219 -356.113281 1009.714844 -351.5625 1027.878906 C -347.015625 1046.039062 -342.019531 1064.082031 -336.585938 1082 C -331.148438 1099.917969 -325.277344 1117.691406 -318.96875 1135.324219 C -312.660156 1152.953125 -305.925781 1170.417969 -298.757812 1187.71875 C -291.59375 1205.015625 -284.007812 1222.128906 -276.003906 1239.058594 C -267.996094 1255.984375 -259.578125 1272.703125 -250.753906 1289.21875 C -241.925781 1305.730469 -232.699219 1322.019531 -223.074219 1338.082031 C -213.445312 1354.140625 -203.433594 1369.957031 -193.027344 1385.523438 C -182.625 1401.09375 -171.847656 1416.398438 -160.691406 1431.4375 C -149.539062 1446.480469 -138.023438 1461.234375 -126.144531 1475.710938 C -114.265625 1490.183594 -102.039062 1504.359375 -89.460938 1518.234375 C -76.886719 1532.105469 -63.980469 1545.664062 -50.738281 1558.90625 C -37.5 1572.144531 -23.941406 1585.054688 -10.066406 1597.628906 C 3.804688 1610.203125 17.980469 1622.429688 32.453125 1634.308594 C 46.929688 1646.1875 61.6875 1657.703125 76.726562 1668.859375 C 91.765625 1680.011719 107.070312 1690.792969 122.640625 1701.195312 C 138.207031 1711.597656 154.023438 1721.613281 170.085938 1731.238281 C 186.144531 1740.863281 202.433594 1750.089844 218.945312 1758.917969 C 235.460938 1767.746094 252.179688 1776.160156 269.105469 1784.167969 C 286.035156 1792.171875 303.148438 1799.757812 320.445312 1806.925781 C 337.746094 1814.089844 355.210938 1820.828125 372.839844 1827.136719 C 390.472656 1833.445312 408.246094 1839.316406 426.164062 1844.75 C 444.082031 1850.1875 462.125 1855.179688 480.289062 1859.730469 C 498.453125 1864.277344 516.714844 1868.378906 535.082031 1872.03125 C 553.445312 1875.6875 571.890625 1878.886719 590.410156 1881.632812 C 608.933594 1884.382812 627.511719 1886.671875 646.148438 1888.507812 C 664.78125 1890.34375 683.449219 1891.71875 702.152344 1892.640625 C 720.855469 1893.558594 739.566406 1894.015625 758.292969 1894.015625 C 777.015625 1894.015625 795.730469 1893.558594 814.433594 1892.640625 C 833.136719 1891.71875 851.804688 1890.34375 870.4375 1888.507812 C 889.074219 1886.671875 907.652344 1884.382812 926.171875 1881.632812 C 944.695312 1878.886719 963.140625 1875.6875 981.503906 1872.03125 C 999.867188 1868.378906 1018.132812 1864.277344 1036.296875 1859.730469 C 1054.460938 1855.179688 1072.5 1850.1875 1090.417969 1844.75 C 1108.339844 1839.316406 1126.113281 1833.445312 1143.742188 1827.136719 C 1161.371094 1820.828125 1178.835938 1814.089844 1196.136719 1806.925781 C 1213.4375 1799.757812 1230.550781 1792.171875 1247.476562 1784.167969 C 1264.402344 1776.160156 1281.125 1767.746094 1297.636719 1758.917969 C 1314.152344 1750.089844 1330.4375 1740.863281 1346.5 1731.238281 C 1362.5625 1721.613281 1378.375 1711.597656 1393.945312 1701.195312 C 1409.511719 1690.792969 1424.816406 1680.011719 1439.859375 1668.859375 C 1454.898438 1657.703125 1469.65625 1646.1875 1484.128906 1634.308594 C 1498.605469 1622.429688 1512.777344 1610.203125 1526.652344 1597.628906 C 1540.527344 1585.054688 1554.082031 1572.144531 1567.324219 1558.90625 C 1580.566406 1545.664062 1593.472656 1532.105469 1606.046875 1518.234375 C 1618.621094 1504.359375 1630.847656 1490.183594 1642.726562 1475.710938 C 1654.605469 1461.234375 1666.121094 1446.480469 1677.277344 1431.4375 C 1688.433594 1416.398438 1699.210938 1401.09375 1709.613281 1385.523438 C 1720.015625 1369.957031 1730.03125 1354.140625 1739.65625 1338.082031 C 1749.285156 1322.019531 1758.511719 1305.734375 1767.335938 1289.21875 C 1776.164062 1272.703125 1784.582031 1255.984375 1792.585938 1239.058594 C 1800.59375 1222.128906 1808.175781 1205.015625 1815.34375 1187.71875 C 1822.507812 1170.417969 1829.246094 1152.953125 1835.554688 1135.324219 C 1841.863281 1117.691406 1847.734375 1099.917969 1853.167969 1082 C 1858.605469 1064.082031 1863.597656 1046.039062 1868.148438 1027.878906 C 1872.699219 1009.714844 1876.800781 991.449219 1880.453125 973.085938 C 1884.105469 954.71875 1887.304688 936.277344 1890.050781 917.753906 C 1892.800781 899.230469 1895.089844 880.652344 1896.925781 862.019531 C 1898.761719 843.382812 1900.140625 824.714844 1901.058594 806.011719 C 1901.976562 787.3125 1902.4375 768.597656 1902.4375 749.871094 C 1902.414062 731.152344 1901.933594 712.445312 1900.996094 693.753906 C 1900.054688 675.058594 1898.660156 656.394531 1896.804688 637.769531 C 1894.953125 619.140625 1892.640625 600.570312 1889.878906 582.058594 C 1887.113281 563.542969 1883.898438 545.109375 1880.230469 526.753906 C 1876.5625 508.398438 1872.445312 490.144531 1867.882812 471.988281 C 1863.320312 453.835938 1858.316406 435.804688 1852.867188 417.894531 C 1847.421875 399.988281 1841.539062 382.222656 1835.222656 364.601562 C 1828.902344 346.980469 1822.15625 329.527344 1814.984375 312.238281 C 1807.8125 294.945312 1800.21875 277.84375 1792.207031 260.925781 C 1784.195312 244.007812 1775.773438 227.296875 1766.941406 210.792969 C 1758.109375 194.289062 1748.878906 178.011719 1739.25 161.957031 C 1729.621094 145.90625 1719.605469 130.097656 1709.199219 114.539062 C 1698.796875 98.976562 1688.015625 83.679688 1676.863281 68.648438 C 1665.710938 53.613281 1654.191406 38.863281 1642.316406 24.398438 C 1630.4375 9.929688 1618.214844 -4.238281 1605.644531 -18.109375 C 1593.070312 -31.976562 1580.167969 -45.53125 1566.929688 -58.765625 C 1553.695312 -72.003906 1540.140625 -84.90625 1526.273438 -97.476562 C 1512.40625 -110.050781 1498.234375 -122.273438 1483.769531 -134.152344 C 1469.300781 -146.027344 1454.550781 -157.542969 1439.515625 -168.699219 C 1424.484375 -179.851562 1409.1875 -190.632812 1393.625 -201.035156 C 1378.066406 -211.441406 1362.257812 -221.457031 1346.207031 -231.085938 C 1330.15625 -240.714844 1313.875 -249.945312 1297.371094 -258.777344 C 1280.867188 -267.609375 1264.15625 -276.027344 1247.238281 -284.042969 C 1230.320312 -292.054688 1213.21875 -299.644531 1195.929688 -306.820312 C 1178.640625 -313.992188 1161.183594 -320.738281 1143.5625 -327.054688 C 1125.941406 -333.375 1108.179688 -339.257812 1090.269531 -344.703125 C 1072.359375 -350.152344 1054.328125 -355.15625 1036.175781 -359.71875 C 1018.019531 -364.28125 999.765625 -368.398438 981.410156 -372.066406 C 963.054688 -375.734375 944.621094 -378.949219 926.105469 -381.714844 C 907.59375 -384.476562 889.023438 -386.785156 870.394531 -388.640625 C 851.769531 -390.496094 833.109375 -391.890625 814.414062 -392.828125 C 795.71875 -393.769531 777.011719 -394.25 758.292969 -394.273438 Z M 502.542969 1318.714844 C 498.117188 1318.714844 493.730469 1318.28125 489.390625 1317.414062 C 485.050781 1316.546875 480.835938 1315.265625 476.746094 1313.570312 C 472.65625 1311.871094 468.773438 1309.789062 465.097656 1307.328125 C 461.417969 1304.863281 458.015625 1302.0625 454.890625 1298.925781 L 21.328125 865.230469 C 20.527344 864.457031 19.746094 863.664062 18.984375 862.851562 C 18.222656 862.039062 17.480469 861.207031 16.761719 860.359375 C 16.042969 859.507812 15.34375 858.640625 14.664062 857.757812 C 13.988281 856.875 13.332031 855.972656 12.699219 855.058594 C 12.066406 854.140625 11.457031 853.210938 10.871094 852.261719 C 10.285156 851.316406 9.722656 850.355469 9.183594 849.382812 C 8.644531 848.40625 8.128906 847.417969 7.640625 846.417969 C 7.148438 845.417969 6.683594 844.40625 6.246094 843.382812 C 5.804688 842.359375 5.390625 841.328125 5.003906 840.28125 C 4.617188 839.238281 4.253906 838.1875 3.917969 837.125 C 3.582031 836.0625 3.273438 834.992188 2.988281 833.917969 C 2.707031 832.839844 2.449219 831.757812 2.222656 830.667969 C 1.992188 829.578125 1.789062 828.480469 1.617188 827.382812 C 1.441406 826.28125 1.292969 825.179688 1.171875 824.070312 C 1.054688 822.964844 0.960938 821.855469 0.894531 820.742188 C 0.832031 819.628906 0.792969 818.519531 0.785156 817.40625 C 0.773438 816.289062 0.792969 815.179688 0.839844 814.066406 C 0.882812 812.953125 0.957031 811.839844 1.058594 810.734375 C 1.160156 809.625 1.285156 808.515625 1.441406 807.414062 C 1.597656 806.3125 1.78125 805.214844 1.992188 804.121094 C 2.199219 803.027344 2.4375 801.9375 2.703125 800.855469 C 2.964844 799.773438 3.257812 798.699219 3.574219 797.632812 C 3.890625 796.566406 4.234375 795.507812 4.605469 794.457031 C 4.976562 793.40625 5.371094 792.363281 5.792969 791.335938 C 6.214844 790.304688 6.664062 789.285156 7.132812 788.277344 C 7.605469 787.265625 8.105469 786.269531 8.625 785.289062 C 9.148438 784.304688 9.695312 783.332031 10.261719 782.375 C 10.832031 781.417969 11.425781 780.476562 12.042969 779.550781 C 12.660156 778.621094 13.300781 777.710938 13.960938 776.816406 C 14.625 775.921875 15.308594 775.042969 16.011719 774.179688 C 16.71875 773.320312 17.445312 772.476562 18.191406 771.648438 C 18.941406 770.824219 19.707031 770.015625 20.496094 769.230469 C 21.28125 768.441406 22.089844 767.675781 22.914062 766.925781 C 23.738281 766.179688 24.582031 765.453125 25.445312 764.746094 C 26.304688 764.042969 27.183594 763.359375 28.082031 762.695312 C 28.976562 762.035156 29.886719 761.394531 30.816406 760.777344 C 31.742188 760.160156 32.683594 759.570312 33.640625 759 C 34.597656 758.429688 35.566406 757.882812 36.550781 757.359375 C 37.535156 756.839844 38.53125 756.34375 39.539062 755.871094 C 40.550781 755.398438 41.570312 754.949219 42.597656 754.527344 C 43.628906 754.105469 44.671875 753.710938 45.722656 753.339844 C 46.769531 752.972656 47.832031 752.628906 48.898438 752.308594 C 49.964844 751.992188 51.039062 751.703125 52.121094 751.4375 C 53.203125 751.171875 54.292969 750.9375 55.386719 750.726562 C 56.480469 750.515625 57.578125 750.332031 58.679688 750.175781 C 59.78125 750.023438 60.886719 749.894531 61.996094 749.792969 C 63.105469 749.691406 64.21875 749.621094 65.328125 749.574219 C 66.441406 749.527344 67.554688 749.511719 68.667969 749.519531 C 69.78125 749.53125 70.894531 749.566406 72.007812 749.632812 C 73.121094 749.695312 74.230469 749.789062 75.335938 749.910156 C 76.441406 750.027344 77.546875 750.175781 78.644531 750.351562 C 79.746094 750.527344 80.839844 750.726562 81.929688 750.957031 C 83.019531 751.1875 84.105469 751.441406 85.179688 751.726562 C 86.257812 752.007812 87.328125 752.316406 88.390625 752.652344 C 89.453125 752.988281 90.503906 753.351562 91.546875 753.738281 C 92.589844 754.128906 93.625 754.542969 94.648438 754.980469 C 95.671875 755.421875 96.683594 755.886719 97.683594 756.375 C 98.683594 756.863281 99.671875 757.378906 100.644531 757.917969 C 101.621094 758.457031 102.582031 759.019531 103.527344 759.605469 C 104.472656 760.191406 105.40625 760.800781 106.324219 761.433594 C 107.238281 762.066406 108.140625 762.722656 109.023438 763.398438 C 109.90625 764.078125 110.773438 764.777344 111.621094 765.496094 C 112.472656 766.21875 113.304688 766.957031 114.117188 767.71875 C 114.929688 768.480469 115.722656 769.261719 116.496094 770.0625 L 502.542969 1156.246094 L 1385.417969 273.234375 C 1386.203125 272.480469 1387.003906 271.742188 1387.820312 271.023438 C 1388.640625 270.304688 1389.476562 269.609375 1390.332031 268.933594 C 1391.183594 268.253906 1392.054688 267.597656 1392.9375 266.964844 C 1393.824219 266.328125 1394.722656 265.714844 1395.636719 265.125 C 1396.554688 264.53125 1397.480469 263.964844 1398.425781 263.417969 C 1399.367188 262.871094 1400.320312 262.347656 1401.289062 261.847656 C 1402.257812 261.347656 1403.234375 260.871094 1404.226562 260.417969 C 1405.21875 259.96875 1406.21875 259.539062 1407.230469 259.136719 C 1408.242188 258.730469 1409.261719 258.351562 1410.292969 258 C 1411.324219 257.644531 1412.363281 257.316406 1413.40625 257.011719 C 1414.453125 256.707031 1415.507812 256.429688 1416.566406 256.179688 C 1417.625 255.925781 1418.691406 255.699219 1419.761719 255.496094 C 1420.832031 255.296875 1421.90625 255.121094 1422.984375 254.972656 C 1424.066406 254.824219 1425.148438 254.703125 1426.234375 254.605469 C 1427.316406 254.511719 1428.402344 254.441406 1429.492188 254.398438 C 1430.582031 254.351562 1431.667969 254.335938 1432.757812 254.347656 C 1433.847656 254.355469 1434.9375 254.390625 1436.023438 254.453125 C 1437.113281 254.515625 1438.195312 254.605469 1439.28125 254.71875 C 1440.363281 254.835938 1441.441406 254.976562 1442.519531 255.144531 C 1443.59375 255.308594 1444.667969 255.503906 1445.734375 255.722656 C 1446.800781 255.941406 1447.863281 256.1875 1448.917969 256.460938 C 1449.972656 256.730469 1451.019531 257.027344 1452.0625 257.347656 C 1453.101562 257.671875 1454.132812 258.015625 1455.15625 258.390625 C 1456.179688 258.761719 1457.195312 259.15625 1458.199219 259.578125 C 1459.203125 260 1460.199219 260.445312 1461.179688 260.914062 C 1462.164062 261.382812 1463.136719 261.878906 1464.09375 262.394531 C 1465.054688 262.910156 1466 263.449219 1466.929688 264.011719 C 1467.863281 264.574219 1468.78125 265.160156 1469.6875 265.765625 C 1470.589844 266.375 1471.480469 267.003906 1472.355469 267.652344 C 1473.226562 268.304688 1474.085938 268.976562 1474.925781 269.667969 C 1475.769531 270.359375 1476.59375 271.070312 1477.398438 271.800781 C 1478.207031 272.535156 1478.992188 273.285156 1479.765625 274.054688 C 1480.535156 274.824219 1481.285156 275.613281 1482.015625 276.421875 C 1482.75 277.226562 1483.460938 278.050781 1484.152344 278.894531 C 1484.84375 279.734375 1485.515625 280.59375 1486.167969 281.464844 C 1486.816406 282.339844 1487.445312 283.230469 1488.054688 284.132812 C 1488.660156 285.039062 1489.246094 285.957031 1489.808594 286.890625 C 1490.371094 287.820312 1490.910156 288.765625 1491.425781 289.726562 C 1491.941406 290.683594 1492.4375 291.65625 1492.90625 292.640625 C 1493.375 293.621094 1493.820312 294.617188 1494.242188 295.621094 C 1494.664062 296.625 1495.058594 297.640625 1495.429688 298.664062 C 1495.804688 299.6875 1496.148438 300.71875 1496.472656 301.757812 C 1496.792969 302.800781 1497.089844 303.847656 1497.359375 304.902344 C 1497.632812 305.957031 1497.878906 307.019531 1498.097656 308.085938 C 1498.316406 309.152344 1498.507812 310.222656 1498.675781 311.300781 C 1498.84375 312.378906 1498.984375 313.457031 1499.101562 314.539062 C 1499.214844 315.625 1499.304688 316.707031 1499.367188 317.796875 C 1499.429688 318.882812 1499.464844 319.972656 1499.472656 321.0625 C 1499.484375 322.148438 1499.46875 323.238281 1499.421875 324.328125 C 1499.378906 325.414062 1499.308594 326.503906 1499.214844 327.585938 C 1499.117188 328.671875 1498.996094 329.753906 1498.847656 330.832031 C 1498.699219 331.914062 1498.523438 332.988281 1498.324219 334.058594 C 1498.121094 335.128906 1497.894531 336.195312 1497.640625 337.253906 C 1497.390625 338.3125 1497.113281 339.367188 1496.808594 340.410156 C 1496.503906 341.457031 1496.175781 342.496094 1495.820312 343.527344 C 1495.464844 344.554688 1495.085938 345.578125 1494.683594 346.589844 C 1494.28125 347.601562 1493.851562 348.601562 1493.398438 349.59375 C 1492.949219 350.582031 1492.472656 351.5625 1491.972656 352.53125 C 1491.472656 353.5 1490.949219 354.453125 1490.402344 355.394531 C 1489.855469 356.339844 1489.289062 357.265625 1488.695312 358.183594 C 1488.105469 359.097656 1487.492188 359.996094 1486.855469 360.882812 C 1486.222656 361.765625 1485.566406 362.636719 1484.886719 363.488281 C 1484.210938 364.34375 1483.515625 365.179688 1482.796875 365.996094 C 1482.078125 366.816406 1481.339844 367.617188 1480.582031 368.402344 L 550.191406 1298.929688 C 547.066406 1302.0625 543.664062 1304.863281 539.988281 1307.328125 C 536.308594 1309.789062 532.425781 1311.871094 528.339844 1313.570312 C 524.25 1315.265625 520.035156 1316.546875 515.695312 1317.414062 C 511.351562 1318.28125 506.96875 1318.714844 502.542969 1318.714844 Z M 502.542969 1318.714844 " fill-opacity="1" fill-rule="nonzero"/></svg>