<svg xmlns="http://www.w3.org/2000/svg" xmlns:xlink="http://www.w3.org/1999/xlink" width="2000" zoomAndPan="magnify" viewBox="0 0 1500 1499.999933" height="2000" preserveAspectRatio="xMidYMid meet" version="1.0"><path fill="#000000" d="M 242.152344 816.164062 L 52.550781 349.988281 C 46.324219 334.652344 53.714844 317.160156 69.035156 310.914062 C 84.371094 304.6875 101.863281 312.0625 108.109375 327.398438 L 306.875 816.164062 L 1193.125 816.164062 L 1391.90625 327.398438 C 1398.132812 312.0625 1415.644531 304.703125 1430.964844 310.914062 C 1446.300781 317.160156 1453.675781 334.652344 1447.449219 349.988281 L 1257.863281 816.164062 L 1378.285156 816.164062 C 1410.546875 816.164062 1441.492188 828.972656 1464.3125 851.792969 C 1487.132812 874.613281 1499.945312 905.558594 1499.945312 937.824219 L 1499.945312 1044.390625 C 1499.945312 1076.667969 1487.132812 1107.601562 1464.3125 1130.421875 C 1441.492188 1153.253906 1410.546875 1166.066406 1378.285156 1166.066406 L 1311.265625 1166.066406 C 1309.71875 1189.789062 1299.617188 1212.226562 1282.703125 1229.136719 C 1264.277344 1247.566406 1239.285156 1257.910156 1213.234375 1257.910156 L 1096.273438 1257.910156 C 1070.210938 1257.910156 1045.21875 1247.566406 1026.804688 1229.136719 C 1009.894531 1212.226562 999.777344 1189.789062 998.230469 1166.066406 L 501.769531 1166.066406 C 500.222656 1189.789062 490.121094 1212.226562 473.210938 1229.136719 C 454.78125 1247.566406 429.789062 1257.910156 403.742188 1257.910156 L 286.78125 1257.910156 C 260.714844 1257.910156 235.722656 1247.566406 217.3125 1229.136719 C 200.398438 1212.226562 190.28125 1189.789062 188.738281 1166.066406 L 121.714844 1166.066406 C 89.453125 1166.066406 58.507812 1153.253906 35.6875 1130.433594 C 12.882812 1107.617188 0.0585938 1076.683594 0.0585938 1044.40625 L 0.0585938 937.835938 C 0.0585938 905.574219 12.882812 874.628906 35.6875 851.808594 C 58.507812 828.988281 89.453125 816.179688 121.714844 816.179688 L 242.152344 816.179688 Z M 249.039062 1166.050781 C 250.355469 1173.839844 254.058594 1181.078125 259.707031 1186.726562 C 266.882812 1193.90625 276.617188 1197.929688 286.78125 1197.929688 L 403.742188 1197.929688 C 413.886719 1197.929688 423.621094 1193.90625 430.800781 1186.726562 C 436.460938 1181.078125 440.167969 1173.839844 441.484375 1166.050781 Z M 1058.53125 1166.050781 C 1059.847656 1173.839844 1063.554688 1181.078125 1069.199219 1186.726562 C 1076.378906 1193.90625 1086.113281 1197.929688 1096.273438 1197.929688 L 1213.234375 1197.929688 C 1223.382812 1197.929688 1233.117188 1193.90625 1240.292969 1186.726562 C 1245.957031 1181.078125 1249.660156 1173.839844 1250.976562 1166.050781 Z M 1378.285156 876.128906 L 121.714844 876.128906 C 105.355469 876.128906 89.667969 882.617188 78.097656 894.1875 C 66.527344 905.757812 60.019531 921.460938 60.019531 937.824219 L 60.019531 1044.390625 C 60.019531 1060.753906 66.527344 1076.453125 78.097656 1088.027344 C 89.667969 1099.597656 105.355469 1106.101562 121.714844 1106.101562 L 1378.285156 1106.101562 C 1394.644531 1106.101562 1410.347656 1099.597656 1421.917969 1088.027344 C 1433.488281 1076.453125 1439.976562 1060.753906 1439.976562 1044.390625 L 1439.976562 937.824219 C 1439.976562 921.460938 1433.488281 905.757812 1421.917969 894.1875 C 1410.347656 882.617188 1394.644531 876.128906 1378.285156 876.128906 Z M 959.875 961.132812 C 976.421875 961.132812 989.859375 974.554688 989.859375 991.113281 C 989.859375 1007.660156 976.421875 1021.097656 959.875 1021.097656 C 943.332031 1021.097656 929.894531 1007.660156 929.894531 991.113281 C 929.894531 974.554688 943.332031 961.132812 959.875 961.132812 Z M 1259.6875 961.132812 L 1109.773438 961.132812 C 1093.230469 961.132812 1079.792969 974.554688 1079.792969 991.113281 C 1079.792969 1007.660156 1093.230469 1021.097656 1109.773438 1021.097656 L 1259.6875 1021.097656 C 1276.230469 1021.097656 1289.667969 1007.660156 1289.667969 991.113281 C 1289.667969 974.554688 1276.230469 961.132812 1259.6875 961.132812 Z M 583.910156 691.902344 C 619.203125 633.941406 682.152344 598.574219 750 598.574219 C 817.863281 598.574219 880.8125 633.941406 916.089844 691.902344 C 924.707031 706.027344 943.164062 710.511719 957.289062 701.910156 C 971.433594 693.308594 975.917969 674.835938 967.316406 660.710938 C 921.140625 584.890625 838.785156 538.609375 750 538.609375 C 661.230469 538.609375 578.859375 584.890625 532.699219 660.710938 C 524.082031 674.835938 528.582031 693.308594 542.710938 701.910156 C 556.835938 710.511719 575.308594 706.027344 583.910156 691.902344 Z M 499.535156 582.378906 C 552.6875 506.558594 647.808594 460.917969 750 460.917969 C 852.207031 460.917969 947.3125 506.558594 1000.464844 582.378906 C 1009.96875 595.925781 1028.671875 599.214844 1042.234375 589.726562 C 1055.777344 580.222656 1059.070312 561.519531 1049.5625 547.960938 C 985.847656 457.0625 872.515625 400.953125 750 400.953125 C 627.5 400.953125 514.148438 457.0625 450.4375 547.960938 C 440.929688 561.519531 444.222656 580.222656 457.78125 589.726562 C 471.328125 599.214844 490.046875 595.925781 499.535156 582.378906 Z M 405.929688 471.113281 C 478.964844 365.753906 609.546875 302.054688 750 302.054688 C 890.453125 302.054688 1021.035156 365.753906 1094.085938 471.113281 C 1103.515625 484.71875 1122.203125 488.101562 1135.808594 478.671875 C 1149.398438 469.246094 1152.78125 450.558594 1143.367188 436.953125 C 1059.726562 316.304688 910.824219 242.089844 750 242.089844 C 589.175781 242.089844 440.289062 316.304688 356.648438 436.953125 C 347.21875 450.558594 350.601562 469.246094 364.207031 478.671875 C 377.796875 488.101562 396.5 484.71875 405.929688 471.113281 Z M 405.929688 471.113281 " fill-opacity="1" fill-rule="evenodd"/></svg>