<svg xmlns="http://www.w3.org/2000/svg" xmlns:xlink="http://www.w3.org/1999/xlink" width="2000" zoomAndPan="magnify" viewBox="0 0 1500 1499.999933" height="2000" preserveAspectRatio="xMidYMid meet" version="1.0"><path fill="#000000" d="M 23.5 1361.949219 L 60.898438 1361.949219 L 60.898438 784.574219 C 60.898438 777.597656 63.976562 771.375 68.792969 767.214844 L 213.8125 621.554688 C 218.003906 616.640625 224.191406 613.5625 231.167969 613.5625 L 411.097656 613.5625 L 411.097656 446.679688 L 404.125 446.679688 C 374.613281 446.679688 350.640625 422.644531 350.640625 393.203125 L 350.640625 338.613281 C 350.640625 309.171875 374.582031 285.136719 404.125 285.136719 L 426.035156 285.136719 L 734.707031 5.992188 C 743.515625 -1.996094 756.8125 -1.800781 765.425781 6.089844 L 1074 285.136719 L 1095.910156 285.136719 C 1125.417969 285.136719 1149.488281 309.171875 1149.488281 338.613281 L 1149.488281 393.203125 C 1149.488281 422.644531 1125.449219 446.679688 1095.910156 446.679688 L 1089.03125 446.679688 L 1089.03125 613.597656 L 1268.863281 613.597656 C 1274.726562 613.597656 1280.554688 615.921875 1285.109375 620.375 L 1431.242188 767.214844 C 1436.347656 772.03125 1439.132812 777.335938 1439.132812 784.574219 L 1439.132812 1361.949219 L 1476.535156 1361.949219 C 1489.242188 1361.949219 1499.460938 1372.167969 1499.460938 1384.773438 L 1499.460938 1496.578125 C 1499.460938 1509.28125 1489.242188 1519.5 1476.535156 1519.5 L 23.5 1519.5 C 10.855469 1519.5 0.574219 1509.28125 0.574219 1496.578125 L 0.574219 1384.808594 C 0.574219 1372.167969 10.890625 1361.949219 23.5 1361.949219 Z M 1453.640625 1407.730469 L 46.421875 1407.730469 L 46.421875 1473.652344 L 1453.640625 1473.652344 Z M 772.957031 941.632812 L 772.957031 1361.949219 L 892.167969 1361.949219 L 892.167969 1081.890625 C 892.167969 1012.007812 840.71875 952.699219 772.957031 941.632812 Z M 727.109375 1361.949219 L 727.109375 941.632812 C 659.347656 952.667969 607.894531 1012.007812 607.894531 1081.890625 L 607.894531 1361.949219 Z M 750.03125 893.917969 C 853.457031 893.917969 938.019531 978.40625 938.019531 1081.890625 L 938.019531 1361.949219 L 1043.214844 1361.949219 L 1043.214844 446.679688 L 456.851562 446.679688 L 456.851562 1361.984375 L 562.046875 1361.984375 L 562.046875 1081.921875 C 562.046875 978.40625 646.605469 893.917969 750.03125 893.917969 Z M 526.117188 848.890625 C 521.109375 860.480469 507.648438 865.789062 496.054688 860.777344 C 484.527344 855.667969 479.253906 842.207031 484.261719 830.714844 L 505.617188 781.984375 L 505.617188 630.757812 C 505.617188 621.195312 511.480469 613.039062 519.832031 609.601562 L 750.984375 488.269531 C 757.402344 484.929688 765.359375 484.570312 772.335938 488.171875 L 1005.257812 610.417969 C 1021.859375 618.96875 1021.859375 642.445312 1005.453125 650.996094 L 937.136719 686.820312 L 937.136719 775.761719 C 937.136719 777.890625 936.773438 780.019531 936.21875 782.085938 C 933.074219 806.675781 911.230469 827.210938 877.726562 840.832031 C 812.75 867.390625 710.242188 867.390625 645.265625 840.832031 C 608.878906 825.964844 586.410156 803.140625 586.410156 775.761719 L 586.410156 686.820312 L 551.5 668.546875 L 551.5 781.984375 L 572.851562 830.714844 C 577.863281 842.242188 572.558594 855.703125 561.0625 860.777344 C 549.46875 865.789062 536.007812 860.515625 530.898438 848.890625 L 528.574219 843.519531 Z M 945.714844 630.757812 L 761.722656 534.214844 L 577.636719 630.757812 L 761.722656 727.296875 Z M 891.21875 710.957031 L 772.464844 773.242188 C 765.980469 776.582031 758.089844 776.941406 751.113281 773.339844 L 632.195312 710.957031 L 632.195312 775.761719 C 632.195312 782.640625 643.726562 790.792969 662.457031 798.425781 C 716.300781 820.433594 806.527344 820.433594 860.46875 798.425781 C 879.132812 790.828125 890.726562 782.640625 890.726562 775.765625 C 890.726562 774.09375 890.828125 772.523438 891.1875 771.015625 L 891.1875 710.957031 Z M 1156.757812 1107.53125 L 1322.476562 1107.53125 C 1335.117188 1107.53125 1345.402344 1117.75 1345.402344 1130.457031 L 1345.402344 1283.355469 C 1345.402344 1295.996094 1335.085938 1306.277344 1322.476562 1306.277344 L 1156.757812 1306.277344 C 1144.117188 1306.277344 1133.835938 1295.964844 1133.835938 1283.355469 L 1133.835938 1130.457031 C 1133.800781 1117.75 1144.117188 1107.53125 1156.757812 1107.53125 Z M 1299.519531 1153.28125 L 1179.652344 1153.28125 L 1179.652344 1260.398438 L 1299.519531 1260.398438 Z M 1156.757812 854.390625 L 1322.476562 854.390625 C 1335.117188 854.390625 1345.402344 864.609375 1345.402344 877.316406 L 1345.402344 1030.214844 C 1345.402344 1042.855469 1335.085938 1053.136719 1322.476562 1053.136719 L 1156.757812 1053.136719 C 1144.117188 1053.136719 1133.835938 1042.824219 1133.835938 1030.214844 L 1133.835938 877.316406 C 1133.800781 864.574219 1144.117188 854.390625 1156.757812 854.390625 Z M 1299.519531 900.238281 L 1179.652344 900.238281 L 1179.652344 1007.257812 L 1299.519531 1007.257812 Z M 177.621094 1107.53125 L 343.339844 1107.53125 C 355.980469 1107.53125 366.265625 1117.75 366.265625 1130.457031 L 366.265625 1283.355469 C 366.265625 1295.996094 355.949219 1306.277344 343.339844 1306.277344 L 177.621094 1306.277344 C 164.980469 1306.277344 154.792969 1295.964844 154.792969 1283.355469 L 154.792969 1130.457031 C 154.761719 1117.75 164.980469 1107.53125 177.621094 1107.53125 Z M 320.378906 1153.28125 L 200.515625 1153.28125 L 200.515625 1260.398438 L 320.378906 1260.398438 Z M 177.621094 854.390625 L 343.339844 854.390625 C 355.980469 854.390625 366.265625 864.609375 366.265625 877.316406 L 366.265625 1030.214844 C 366.265625 1042.855469 355.949219 1053.136719 343.339844 1053.136719 L 177.621094 1053.136719 C 164.980469 1053.136719 154.792969 1042.824219 154.792969 1030.214844 L 154.792969 877.316406 C 154.761719 864.574219 164.980469 854.390625 177.621094 854.390625 Z M 320.378906 900.238281 L 200.515625 900.238281 L 200.515625 1007.257812 L 320.378906 1007.257812 Z M 404.125 400.832031 L 1095.941406 400.832031 C 1100.132812 400.832031 1103.636719 397.296875 1103.636719 393.234375 L 1103.636719 338.613281 C 1103.636719 334.421875 1100.101562 331.015625 1095.941406 331.015625 L 404.125 331.015625 C 399.929688 331.015625 396.523438 334.453125 396.523438 338.613281 L 396.523438 393.203125 C 396.523438 397.296875 399.964844 400.832031 404.125 400.832031 Z M 892.332031 182.40625 L 750 53.738281 L 494.054688 285.167969 L 1005.945312 285.167969 Z M 1089.066406 659.441406 L 1089.066406 761.648438 L 1361.15625 761.648438 L 1259.398438 659.441406 Z M 1089.066406 807.496094 L 1089.066406 1361.949219 L 1393.28125 1361.949219 L 1393.28125 807.496094 Z M 411.097656 1361.949219 L 411.097656 807.496094 L 106.78125 807.496094 L 106.78125 1361.949219 Z M 411.097656 761.648438 L 411.097656 659.441406 L 240.632812 659.441406 L 138.878906 761.648438 Z M 411.097656 761.648438 " fill-opacity="1" fill-rule="nonzero"/></svg>